<svg data-name="Layer 1" xmlns="http://www.w3.org/2000/svg" viewBox="0 0 42.88 42.92"><path d="M17.91.03c-3.09.35-5 .88-7.23 2-1.86.93-3.24 1.91-4.75 3.35-6.08 5.84-7.67 14.94-3.91 22.43C6.13 36 15.26 40.17 24.09 37.9c2.43-.63 4.53-1.66 7.02-3.46.11-.07 1.11.87 4.28 4.02q4.58 4.56 5.62 4.43c1.32-.16 2.14-1.43 1.79-2.75-.12-.44-.46-.81-4.31-4.68-3.18-3.19-4.14-4.22-4.07-4.33 1.96-2.69 3.1-5.2 3.72-8.11.32-1.54.44-4.42.25-5.96-.34-2.73-1.25-5.44-2.57-7.62-2.03-3.34-4.77-5.85-8.23-7.53C25.69 1 24.13.51 22.14.2c-.97-.15-3.57-.27-4.23-.19zm4.34 4.54c3.93.83 7.21 3.03 9.41 6.31 3.41 5.08 3.41 11.59.02 16.72-.9 1.36-2.74 3.2-4.1 4.1-2.85 1.89-6.16 2.75-9.5 2.48-5.28-.43-9.83-3.48-12.18-8.16a15.041 15.041 0 015.35-19.46c1.65-1.05 3.98-1.9 6.07-2.19 1.09-.15 3.82-.05 4.94.19z"/></svg>