<?xml version="1.0" encoding="utf-8"?>
<!-- Generator: Adobe Illustrator 23.1.1, SVG Export Plug-In . SVG Version: 6.00 Build 0)  -->
<svg version="1.1"
	 id="Layer_1" xmlns:cc="http://creativecommons.org/ns#" xmlns:dc="http://purl.org/dc/elements/1.1/" xmlns:inkscape="http://www.inkscape.org/namespaces/inkscape" xmlns:rdf="http://www.w3.org/1999/02/22-rdf-syntax-ns#" xmlns:sodipodi="http://sodipodi.sourceforge.net/DTD/sodipodi-0.dtd" xmlns:svg="http://www.w3.org/2000/svg"
	 xmlns="http://www.w3.org/2000/svg" xmlns:xlink="http://www.w3.org/1999/xlink" x="0px" y="0px" viewBox="0 0 72.2 67.9"
	 style="enable-background:new 0 0 72.2 67.9;" xml:space="preserve">
<style type="text/css">
	.st0{fill:#F7C323;}
</style>
<g transform="translate(0,-952.36218)">
	<path class="st0" d="M57.1,1020.3c1.1,0,2-0.9,2-2c0-0.1,0-0.3,0-0.4l-4.6-22.3l17-15.4c0.8-0.7,0.9-2,0.1-2.8
		c-0.3-0.4-0.8-0.6-1.3-0.6l-22.9-2.5l-9.5-20.7c-0.5-1-1.6-1.5-2.7-1c-0.5,0.2-0.8,0.6-1,1l-9.5,20.7l-22.9,2.5
		c-1.1,0.1-1.9,1.1-1.8,2.2c0.1,0.5,0.3,0.9,0.6,1.3l17,15.4l-4.5,22.2c-0.2,1.1,0.5,2.1,1.6,2.4c0.5,0.1,1,0,1.4-0.2l20-11.3
		l20,11.3C56.4,1020.2,56.7,1020.3,57.1,1020.3L57.1,1020.3z"/>
</g>
</svg>
